<?xml version="1.0" encoding="utf-8"?>
<!-- Generator: Adobe Illustrator 24.1.2, SVG Export Plug-In . SVG Version: 6.00 Build 0)  -->
<svg version="1.1" id="Layer_1" xmlns="http://www.w3.org/2000/svg" xmlns:xlink="http://www.w3.org/1999/xlink" x="0px" y="0px"
	 viewBox="0 0 116 118" style="enable-background:new 0 0 116 118;" xml:space="preserve">
<style type="text/css">
	.st0{fill:#6E52B6;}
</style>
<path class="st0" d="M58,111.6c-1.8,0-3.5-0.5-5.1-1.3L15.2,89c-1.6-0.9-2.9-2.1-3.8-3.7c-0.9-1.5-1.4-3.3-1.4-5.1V57.6l0,0V37.8
	c0-1.8,0.5-3.6,1.4-5.1c0.9-1.5,2.2-2.8,3.8-3.7L53,7.7c1.5-0.9,3.3-1.3,5.1-1.3c1.8,0,3.5,0.5,5.1,1.3l33.8,19.1l0.3,0.1l3.6,2.1
	c1.6,0.9,2.9,2.1,3.8,3.7c0.9,1.5,1.4,3.3,1.4,5.1v22.6l-0.1,0v19.8c0,1.8-0.5,3.6-1.4,5.1c-0.9,1.5-2.2,2.8-3.8,3.7L63,110.3
	C61.5,111.1,59.8,111.6,58,111.6z M17.6,84.8l37.7,21.3c0.8,0.5,1.7,0.7,2.7,0.7s1.9-0.2,2.7-0.7l15.2-8.6l-40.7-23L17.3,84.7
	C17.4,84.7,17.5,84.8,17.6,84.8z M80.7,94.8l17.6-10c0.8-0.5,1.5-1.1,2-1.9c0.4-0.7,0.7-1.5,0.7-2.4l0-17.4L81.8,74l-0.1,0
	c-0.1,0.1-0.2,0.1-0.2,0.1c-0.3,0.1-0.5,0.1-0.7,0.1c-0.2,0-0.3,0-0.5-0.1H80l-0.1-0.1h-0.2l-0.2-0.2L37.6,50.2v20.2L80.7,94.8z
	 M14.9,80.2c0,0.1,0,0.3,0,0.4l18-10.1V50.2l-18,10.1V80.2z M78.4,67.8V47.5l-0.5-0.3l-42.6-24l-17.6,10c-0.8,0.5-1.5,1.1-2,1.9
	c-0.5,0.8-0.7,1.7-0.7,2.7v17.1l19.4-11h0.1c0.1,0,0.2-0.1,0.2-0.1l0.1,0l0.1,0l0.1,0c0.1,0,0.2,0,0.3,0l0.1,0c0.2,0,0.3,0,0.4,0H36
	l0.1,0.1h0.2l0.2,0.2l41.7,23.5L78.4,67.8z M83.2,67.8l18-10.1V37.8c0-0.1,0-0.3,0-0.4l-18,10.1V67.8z M76.3,40.9l4.5,2.5l17.9-10.1
	c-0.1-0.1-0.2-0.1-0.3-0.2l-4.8-2.7L60.7,11.9c-0.8-0.5-1.7-0.7-2.7-0.7s-1.9,0.2-2.7,0.7l-15.2,8.6l32.4,18.3l0,0L76.3,40.9z"/>
</svg>
